HIERARCHY
ROOT Hips
{
	OFFSET 56.877701 -32.693596 43.373703
	CHANNELS 6 Xposition Yposition Zposition Zrotation Xrotation Yrotation
	JOINT Chest
	{
		OFFSET -0.779999 1.005800 5.403099
		CHANNELS 6 Xposition Yposition Zposition Zrotation Xrotation Yrotation
		JOINT Chest2
		{
			OFFSET 0.000000 0.000000 4.236801
			CHANNELS 6 Xposition Yposition Zposition Zrotation Xrotation Yrotation
			JOINT Neck
			{
				OFFSET 0.000000 0.000000 9.874401
				CHANNELS 6 Xposition Yposition Zposition Zrotation Xrotation Yrotation
				JOINT Head
				{
					OFFSET 0.000000 0.000002 2.173893
					CHANNELS 6 Xposition Yposition Zposition Zrotation Xrotation Yrotation
					End Site
					{
						OFFSET 0.000000 0.000000 6.508102
					}
				}
			}
			JOINT LeftCollar
			{
				OFFSET 2.681599 -0.377600 5.432499
				CHANNELS 6 Xposition Yposition Zposition Zrotation Xrotation Yrotation
				JOINT LeftShoulder
				{
					OFFSET 5.161499 0.000000 0.000000
					CHANNELS 6 Xposition Yposition Zposition Zrotation Xrotation Yrotation
					JOINT LeftElbow
					{
						OFFSET 0.000000 0.000000 -10.869099
						CHANNELS 6 Xposition Yposition Zposition Zrotation Xrotation Yrotation
						JOINT LeftWrist
						{
							OFFSET 0.000000 0.000000 -13.344799
							CHANNELS 6 Xposition Yposition Zposition Zrotation Xrotation Yrotation
							End Site
							{
								OFFSET 0.000000 0.000000 -2.173901
							}
						}
					}
				}
			}
			JOINT RightCollar
			{
				OFFSET -2.381901 -1.419600 6.136600
				CHANNELS 6 Xposition Yposition Zposition Zrotation Xrotation Yrotation
				JOINT RightShoulder
				{
					OFFSET -4.550499 0.000000 0.000000
					CHANNELS 6 Xposition Yposition Zposition Zrotation Xrotation Yrotation
					JOINT RightElbow
					{
						OFFSET 0.000000 0.000000 -11.106499
						CHANNELS 6 Xposition Yposition Zposition Zrotation Xrotation Yrotation
						JOINT RightWrist
						{
							OFFSET 0.000000 0.000000 -12.874298
							CHANNELS 6 Xposition Yposition Zposition Zrotation Xrotation Yrotation
							End Site
							{
								OFFSET 0.000000 0.000000 -2.173901
							}
						}
					}
				}
			}
		}
	}
	JOINT LeftHip
	{
		OFFSET 2.431900 0.469601 -2.489399
		CHANNELS 6 Xposition Yposition Zposition Zrotation Xrotation Yrotation
		JOINT LeftKnee
		{
			OFFSET 0.000000 -0.000004 -18.200201
			CHANNELS 6 Xposition Yposition Zposition Zrotation Xrotation Yrotation
			JOINT LeftAnkle
			{
				OFFSET 0.000000 0.000000 -16.279900
				CHANNELS 6 Xposition Yposition Zposition Zrotation Xrotation Yrotation
				End Site
				{
					OFFSET 0.000000 -8.394100 0.000000
				}
			}
		}
	}
	JOINT RightHip
	{
		OFFSET -1.987999 -0.073502 -2.713001
		CHANNELS 6 Xposition Yposition Zposition Zrotation Xrotation Yrotation
		JOINT RightKnee
		{
			OFFSET 0.000000 -0.000004 -19.547802
			CHANNELS 6 Xposition Yposition Zposition Zrotation Xrotation Yrotation
			JOINT RightAnkle
			{
				OFFSET 0.000000 0.000000 -14.881199
				CHANNELS 6 Xposition Yposition Zposition Zrotation Xrotation Yrotation
				End Site
				{
					OFFSET 0.000000 -7.922699 0.000000
				}
			}
		}
	}
}
MOTION
Frames: 6
Frame Time: 0.041667
73.427002 -28.054092 43.786999 5023.957119 19.555783 -4.735047 -0.779994 1.005800 5.403096 18.623455 -12.452997 -4.870804 0.000007 -0.000000 4.236799 -7.351666 -4.000046 -1.596146 0.000002 -0.000005 9.874405 -43.205137 -8.490072 14.211575 0.000003 0.000006 2.173881 -3.638298 -1.149314 -7.783875 2.681602 -0.377600 5.432501 8.028087 -2.461109 -35.598396 5.161512 0.000001 -0.000010 -253.578505 -135.351318 -344.565285 0.000000 0.000004 -10.869093 13.044012 -1.505944 -2.042691 -0.000001 -0.000008 -13.344807 10.001396 -15.543890 3.788791 -2.381897 -1.419600 6.136594 -5.232660 -4.636805 13.757290 -4.550506 -0.000002 0.000013 -1177.877597 -513.124792 -381.175837 -0.000001 -0.000009 -11.106506 726.086046 -7.872104 720.353168 0.000003 0.000005 -12.874296 -375.254254 -1.135646 -3.263748 2.431900 0.469598 -2.489398 12.902623 -22.339088 12.474685 -0.000012 -0.000002 -18.200199 28.222707 23.650645 6.056101 0.000011 0.000002 -16.279892 -32.706135 37.198983 -13.365387 -1.987992 -0.073508 -2.713008 -151.652111 1.179980 -122.368385 0.000004 -0.000003 -19.547798 -1849.635991 46.633397 125.449620 -0.000004 0.000006 -14.881199 2162.304129 25.329680 -330.850976
73.411903 -28.050697 43.783802 5023.902914 19.503796 -4.834768 -0.779996 1.005803 5.403105 18.682803 -12.324718 -4.672993 0.000007 -0.000003 4.236800 -7.345156 -4.029507 -1.603337 0.000004 -0.000003 9.874388 -43.265154 -8.453186 14.116708 0.000001 -0.000005 2.173887 -3.622591 -1.163087 -7.790257 2.681599 -0.377602 5.432496 8.089338 -2.618663 -35.876853 5.161510 0.000000 0.000004 -253.178966 -135.205261 -344.166238 0.000002 -0.000013 -10.869104 12.244847 -1.469582 -1.976865 0.000007 -0.000004 -13.344812 10.826243 -15.441919 3.949453 -2.381892 -1.419601 6.136594 -5.276406 -4.598957 13.585344 -4.550508 -0.000004 0.000010 -1177.206599 -512.974036 -380.840092 0.000005 -0.000012 -11.106498 726.805457 -7.867292 720.423055 0.000005 -0.000005 -12.874290 -375.506752 -0.872444 -3.627356 2.431899 0.469604 -2.489385 12.876907 -22.263389 12.534810 0.000006 -0.000005 -18.200203 28.152704 23.615521 6.103297 0.000000 -0.000002 -16.279898 -32.519084 37.169691 -13.414573 -1.987991 -0.073501 -2.712998 -151.561638 1.063577 -122.291218 -0.000005 -0.000009 -19.547791 -1849.489115 46.582047 125.310503 0.000002 0.000005 -14.881197 2162.365764 25.344204 -330.789422
73.396500 -28.046999 43.780304 5023.670797 20.116843 -4.812874 -0.780003 1.005805 5.403096 19.001416 -12.842179 -4.351493 -0.000009 -0.000001 4.236801 -7.350892 -4.060442 -1.609809 -0.000008 0.000003 9.874397 -43.298943 -8.439297 14.058900 -0.000002 -0.000000 2.173893 -3.608681 -1.176050 -7.789329 2.681593 -0.377598 5.432502 8.149679 -2.733005 -36.059519 5.161512 -0.000004 -0.000002 -252.843658 -135.068179 -343.857459 0.000001 -0.000000 -10.869095 11.574229 -1.483368 -2.004080 0.000002 0.000000 -13.344803 11.485715 -15.399281 4.279693 -2.381902 -1.419596 6.136593 -5.303961 -4.571566 13.457184 -4.550505 -0.000003 0.000009 -1176.431455 -512.815411 -380.467082 0.000001 -0.000001 -11.106503 727.505742 -7.824513 720.451250 0.000002 0.000004 -12.874298 -375.615352 -0.668145 -3.923857 2.431900 0.469602 -2.489393 13.102646 -22.835390 12.686363 -0.000002 -0.000004 -18.200199 28.105265 23.577572 6.144041 0.000002 -0.000002 -16.279902 -32.350962 37.150160 -13.453305 -1.987995 -0.073499 -2.713009 -151.240442 1.545074 -122.451672 -0.000002 -0.000008 -19.547794 -1849.360379 46.543699 125.194991 -0.000005 0.000014 -14.881199 2162.418220 25.418546 -330.581183
73.381111 -28.043295 43.776703 5023.584245 20.090856 -4.836501 -0.780001 1.005798 5.403105 19.085659 -12.781365 -4.268671 0.000002 -0.000001 4.236800 -7.369832 -4.089469 -1.615822 -0.000006 0.000002 9.874394 -43.306787 -8.446655 14.033188 -0.000000 0.000009 2.173885 -3.596444 -1.190889 -7.785347 2.681590 -0.377597 5.432504 8.212372 -2.809297 -36.147786 5.161501 -0.000002 0.000005 -252.605531 -135.015723 -343.688098 0.000007 -0.000009 -10.869102 11.138223 -1.459364 -1.952210 0.000011 -0.000006 -13.344795 11.867500 -15.474150 4.553075 -2.381909 -1.419595 6.136593 -5.318861 -4.549722 13.348714 -4.550489 -0.000003 0.000014 -1175.559704 -512.674491 -380.051943 0.000004 0.000000 -11.106503 728.204826 -7.736893 720.440267 0.000006 0.000008 -12.874301 -375.637646 -0.546984 -4.206523 2.431889 0.469608 -2.489393 13.085912 -22.802609 12.686197 -0.000000 -0.000009 -18.200203 28.078985 23.544736 6.170987 0.000003 -0.000002 -16.279900 -32.211295 37.137347 -13.487295 -1.988003 -0.073496 -2.713001 -151.112020 1.470836 -122.292051 -0.000004 0.000000 -19.547789 -1849.224213 46.496089 125.082648 -0.000010 -0.000003 -14.881201 2162.461278 25.455080 -330.507636
73.365501 -28.039295 43.773899 5023.501190 20.055799 -4.844516 -0.779997 1.005804 5.403097 19.162864 -12.718797 -4.220559 -0.000005 -0.000001 4.236795 -7.398714 -4.121026 -1.623434 -0.000006 -0.000003 9.874399 -43.295285 -8.468290 14.027847 0.000004 0.000005 2.173882 -3.585950 -1.204077 -7.783015 2.681595 -0.377602 5.432506 8.286829 -2.879996 -36.174864 5.161510 0.000001 0.000001 -252.861581 -134.917273 -343.843799 0.000001 0.000007 -10.869101 10.593541 -1.411619 -1.955691 0.000004 0.000001 -13.344814 12.009687 -15.683016 4.870559 -2.381899 -1.419603 6.136589 -5.332493 -4.533366 13.243346 -4.550508 0.000001 0.000018 -1174.869145 -512.624221 -379.736088 0.000010 -0.000013 -11.106501 728.707582 -7.614937 720.416771 0.000004 -0.000001 -12.874306 -375.693681 -0.457650 -4.526645 2.431901 0.469604 -2.489399 13.080276 -22.771362 12.676484 0.000007 -0.000002 -18.200201 28.069047 23.526426 6.177965 -0.000001 0.000003 -16.279903 -32.106213 37.127617 -13.524862 -1.988002 -0.073504 -2.713002 -150.980922 1.384278 -122.081982 -0.000016 -0.000004 -19.547806 -1849.066189 46.437633 124.955551 -0.000008 0.000008 -14.881201 2162.559633 25.486269 -330.503783
73.350403 -28.034895 43.771999 5023.428626 20.019325 -4.837949 -0.780008 1.005800 5.403099 19.228198 -12.663853 -4.206956 0.000008 -0.000001 4.236804 -7.441974 -4.150425 -1.633103 0.000011 0.000003 9.874401 -43.267507 -8.505052 14.041675 0.000002 0.000012 2.173900 -3.577855 -1.216034 -7.785683 2.681613 -0.377598 5.432500 8.380745 -2.955089 -36.156583 5.161503 -0.000006 -0.000005 -252.645009 -134.930032 -343.630861 0.000008 0.000000 -10.869094 10.567666 -1.361670 -2.011189 0.000008 0.000000 -13.344807 12.059484 -15.896821 5.114824 -2.381882 -1.419601 6.136594 -5.335075 -4.514501 13.152509 -4.550499 -0.000002 0.000005 -1174.364366 -512.644821 -379.511374 0.000003 -0.000000 -11.106504 729.093679 -7.454950 720.391854 0.000003 -0.000006 -12.874297 -375.865310 -0.413428 -4.817270 2.431888 0.469598 -2.489393 13.080658 -22.752993 12.659726 -0.000008 -0.000006 -18.200195 27.984581 23.530570 6.180073 0.000004 0.000000 -16.279903 -31.936943 37.090895 -13.597426 -1.988007 -0.073505 -2.713003 -150.849946 1.292068 -121.821683 0.000000 -0.000003 -19.547802 -1849.200826 46.607872 125.068495 -0.000002 0.000013 -14.881197 2162.386965 25.462720 -330.554709
